<?xml version="1.0" encoding="UTF-8"?>
<svg width="128px" height="128px" viewBox="0 0 128 128" version="1.1" xmlns="http://www.w3.org/2000/svg" xmlns:xlink="http://www.w3.org/1999/xlink">
    <title>Barc Icon</title>
    <g id="Page-1" stroke="none" stroke-width="1" fill="none" fill-rule="evenodd">
        <g id="Tablet-(Dark)" transform="translate(-320, -64)">
            <g id="Barc-Icon" transform="translate(320, 64)">
                <path d="M91.4646359,1.81366828e-15 C104.168778,1.81366828e-15 108.775607,1.32276496 113.420051,3.80664103 C118.064496,6.2905171 121.709483,9.93550428 124.193359,14.5799487 C126.677235,19.2243932 128,23.8312221 128,36.5353641 L128,91.4646359 C128,104.168778 126.677235,108.775607 124.193359,113.420051 C121.709483,118.064496 118.064496,121.709483 113.420051,124.193359 C108.775607,126.677235 104.168778,128 91.4646359,128 L36.5353641,128 C23.8312221,128 19.2243932,126.677235 14.5799487,124.193359 C9.93550428,121.709483 6.2905171,118.064496 3.80664103,113.420051 C1.34760372,108.822051 0.0265714103,104.260918 1.81366828e-15,91.8433391 L1.81366828e-15,36.5353641 C1.81366828e-15,23.8312221 1.32276496,19.2243932 3.80664103,14.5799487 C6.2905171,9.93550428 9.93550428,6.2905171 14.5799487,3.80664103 C19.1779487,1.34760372 23.7390817,0.0265714103 36.1566609,1.81366828e-15 L91.4646359,1.81366828e-15 Z" id="Rectangle" fill="#FFFFFF"></path>
                <g id="Path-2" transform="translate(21.5, 7.25)" fill="#000000" fill-rule="nonzero">
                    <path d="M38.362314,3.12593089 C39.1977579,4.61976579 39.6360139,6.59353762 39.8371731,8.97485622 L39.8552778,9.1987643 C40.115362,12.5651018 39.8584446,16.2724593 39.0644526,19.4816472 L39.0293087,19.6216392 L39.1731668,19.6541487 C40.4770728,19.9447807 42.2829819,20.2311292 45.0017366,20.5994855 L48.0193566,21.0047275 C48.2393157,21.0347654 48.4483652,21.0635702 48.6549362,21.0923149 L49.3337746,21.1880128 L49.7909611,21.2539896 C53.4053731,21.780889 55.9962621,22.2888748 58.3121604,22.9969715 L58.5892375,23.083057 C62.6941514,24.3788543 65.5905179,26.2501471 66.9880956,29.4438512 C67.8952542,31.5168639 68.397115,33.5665295 68.5771718,35.66314 C68.6984505,37.0753295 68.6787013,38.2023902 68.5578287,39.8986059 L68.4597468,41.2415991 L68.4455587,41.4876392 L68.6060838,41.5447197 L68.7783409,41.6020997 C70.1197776,42.0355044 72.3776076,42.4684876 76.3071077,43.0765266 L78.6107645,43.4276023 L80.1078087,43.6593892 L80.2742715,43.6005256 C81.5117588,43.1746339 82.835991,43.0020312 84.1797995,43.1178768 L87.8490127,43.4366711 C93.1342252,43.8968105 97.0407776,48.5542429 96.5808175,53.8373959 L96.5659431,53.9919172 C96.4372431,55.2257679 96.0760396,56.4032479 95.5116979,57.4739111 L95.4558087,57.5778892 L95.4415053,57.6772246 C94.7780007,62.0736647 92.3948342,67.103074 89.4129591,70.8069476 L89.2829385,70.9671443 C89.0232359,71.2842393 88.7655941,71.7259555 88.3054874,72.6573609 L87.7079534,73.8751665 C87.6353006,74.0205771 87.5659893,74.1573539 87.4961673,74.2928812 L87.4253863,74.4292899 C85.2239861,78.6414239 82.3485218,81.3169019 77.2270655,82.7935899 L77.0566913,82.8419637 C72.7703288,84.0402413 67.0755082,84.2296303 59.4727729,83.3560926 L59.1045587,83.3128892 L59.1555788,83.5583117 L59.2856834,84.1967437 C60.0118319,87.8086077 60.5569183,91.3616525 60.8504678,94.7346231 C61.1257829,97.8980761 61.1706033,100.810375 60.9419707,103.435471 L60.5442807,108.001639 L0,108.001639 L1.38583997,101.895066 L1.47561149,101.48346 L1.62089665,100.789087 L1.68750911,100.461602 C1.74405777,100.181304 1.80315614,99.8826177 1.86445968,99.5662964 L1.97559711,98.9860447 L2.09403516,98.3523556 C2.3504,96.9631501 2.60469908,95.4695214 2.8484566,93.890186 L2.95324531,93.2015271 C4.00520365,86.1881797 4.60602128,79.1595214 4.52724591,72.6637885 C4.44077664,65.5336242 3.52615222,59.5602642 1.72516657,55.184991 L1.57852149,54.8320529 C-0.867160967,48.8499233 -0.108925425,42.163879 3.1099245,35.0028435 C5.68479179,29.2744882 9.75349266,23.3746893 15.082694,17.1279378 L15.2538861,16.9276169 C17.8770009,13.8634804 20.4231167,11.1337069 23.8826626,7.58321141 L26.0327083,5.38198188 C26.372586,5.0329728 26.6534435,4.74288008 26.8988286,4.48705187 L27.2906125,4.07588329 L27.5992957,3.74665503 C27.7416307,3.59336134 27.8661532,3.45683933 27.9737525,3.33614855 L28.1100727,3.18129464 L28.24174,3.02639152 L28.3103087,2.9413892 L28.331187,2.9085753 C30.8648893,-0.982751066 36.0392776,-1.02782856 38.362314,3.12593089 Z M11.4998118,103.001639 L11.498262,30.1373518 C9.94061902,32.5405447 8.56320643,34.9990709 7.49254237,37.4544061 L7.49535949,56.5848876 C7.45868799,56.4586124 7.42144045,56.3328533 7.38361058,56.207624 C11.1264012,68.5973774 9.16903733,86.1724669 7.59650315,95.8752156 L7.49462366,96.4962926 L7.49456176,103.001639 L11.4998118,103.001639 Z M17.5075618,103.001577 L17.5077968,22.0174205 L17.6460427,21.8498601 C16.2262218,23.5675211 14.8242078,25.3625017 13.5012923,27.2064497 L13.5023118,103.001577 L17.5075618,103.001577 Z M23.5155618,103.001577 L23.5165448,15.1994756 C22.862231,15.9006675 22.1920592,16.6292775 21.5129998,17.3820811 L21.5128118,103.001577 L23.5155618,103.001577 Z M25.5260618,103.001577 L25.5272266,13.0745866 L25.5193604,13.0827951 L25.5180618,103.001577 L25.5260618,103.001577 Z M37.5338118,103.001577 L37.5339565,24.4019103 L37.3331671,24.3518259 C34.4032621,23.6074873 32.6727404,22.5597773 33.3925335,20.768003 L33.4174359,20.708001 C36.152227,14.3288429 34.8228517,2.24064156 32.5643311,5.57135947 L32.4490391,5.74878608 C31.86636,6.61664815 29.9131162,8.5568409 27.3000915,11.2405724 L29.5245178,8.963008 L29.5233118,103.001577 L37.5338118,103.001577 Z M45.5443118,103.001577 L45.5442768,25.716925 L44.240762,25.5421702 C44.0755879,25.5198189 43.911082,25.4974393 43.747335,25.4749995 L43.0303444,25.3755378 L43.5418692,25.4467528 L43.5418692,103.001577 L45.5443118,103.001577 Z M49.5498118,103.001577 L49.5499369,26.27238 L49.1490314,26.213149 C48.6162475,26.1352372 48.0813875,26.0601007 47.5472613,25.9867495 L47.5470618,103.001577 L49.5498118,103.001577 Z M55.9608273,103.001639 C56.7996889,93.3700587 53.2485731,79.9647714 52.6025775,77.6298355 L52.5032144,77.2762639 L53.1999635,77.3968326 C55.5036601,77.7902438 57.6199143,78.099086 59.5656077,78.3317103 L59.5653426,28.8340564 C57.5128499,27.7962988 54.645212,27.1179761 51.5532151,26.5909592 L51.5523118,103.001639 L55.9608273,103.001639 Z M61.5659986,30.2309432 L61.5685091,78.5504685 C63.8072555,78.7706724 65.7988883,78.8808783 67.5744652,78.8964496 L67.5734823,46.4517167 L67.6163384,46.4645111 C66.8533446,46.237636 66.1817251,45.9896206 65.6292809,45.7136783 C61.0262762,43.4137073 65.6292809,38.8107026 62.4074839,31.4483452 C62.2289668,31.0404031 61.9727564,30.6644767 61.6484801,30.3171744 L61.5659986,30.2309432 Z M69.834927,47.0213373 L69.5760709,46.9646512 L69.5799038,78.8715314 C71.0028007,78.8213096 72.2664644,78.7018854 73.3923467,78.5238706 L73.5814898,78.4932008 L73.5813815,47.710747 C72.2617433,47.496313 70.9933489,47.2712886 69.834927,47.0213373 L69.834927,47.0213373 Z M75.5838118,48.0245766 L75.5863207,78.0608326 C80.5975053,76.6994288 82.1350147,73.8907833 83.4350623,71.2357669 L83.5943489,70.909346 L83.594244,48.0886636 C82.586624,48.0369205 81.6392861,48.328223 80.8470654,48.8466616 C80.1921626,48.7357217 79.5237942,48.6285456 78.8492267,48.5233592 L77.951118,48.3847994 L75.9917124,48.0872197 L75.5838118,48.0245766 Z M85.5970705,48.2598266 L85.5970705,67.5727447 C87.1235631,65.6506531 88.5684323,63.1233162 89.5146531,60.593509 L89.6025824,60.3544109 L89.6025824,49.1950219 L89.6649683,49.2382659 C89.0228335,48.7852537 88.2558811,48.4910073 87.4162238,48.4179053 L85.5970705,48.2598266 Z M5.48535847,43.7768874 L5.48402869,50.6008036 L5.48673594,50.6133151 L5.48814343,43.7618845 L5.48535847,43.7768874 Z" id="Shape"></path>
                </g>
            </g>
        </g>
    </g>
</svg>