<?xml version="1.0" encoding="UTF-8"?>
<svg width="512px" height="512px" viewBox="0 0 512 512" version="1.1" xmlns="http://www.w3.org/2000/svg" xmlns:xlink="http://www.w3.org/1999/xlink">
    <title>Icon</title>
    <defs>
        <linearGradient x1="50%" y1="0%" x2="50%" y2="100%" id="linearGradient-1">
            <stop stop-color="#FF8126" offset="0%"></stop>
            <stop stop-color="#FF117E" offset="100%"></stop>
        </linearGradient>
        <rect id="path-2" x="0" y="0" width="512" height="512"></rect>
    </defs>
    <g id="Icon" stroke="none" stroke-width="1" fill="none" fill-rule="evenodd">
        <g id="Background">
            <use fill="url(#linearGradient-1)" xlink:href="#path-2"></use>
            <use fill="#FFFFFF" xlink:href="#path-2"></use>
        </g>
        <g id="Path-2" transform="translate(86, 29)" fill="#000000" fill-rule="nonzero">
            <path d="M153.449256,12.5037236 C156.791032,18.4790631 158.544056,26.3741505 159.348692,35.8994249 L159.421111,36.7950572 C160.461448,50.2604074 159.433778,65.0898372 156.25781,77.926589 L156.117235,78.4865568 L156.692667,78.6165948 C161.908291,79.7791226 169.131928,80.9245168 180.006946,82.3979419 L192.077426,84.0189102 C192.957263,84.1390615 193.793461,84.2542806 194.619745,84.3692594 L197.335099,84.7520512 L199.163845,85.0159583 C213.621493,87.123556 223.985049,89.1554991 233.248642,91.987886 L234.35695,92.3322279 C250.776606,97.5154174 262.362072,105.000588 267.952382,117.775405 C271.581017,126.067456 273.58846,134.266118 274.308687,142.65256 C274.793802,148.301318 274.714805,152.809561 274.231315,159.594424 L273.838987,164.966396 L273.782235,165.950557 L274.424335,166.178879 L275.113363,166.408399 C280.479111,168.142018 289.51043,169.87395 305.228431,172.306106 L314.443058,173.710409 L320.431235,174.637557 L321.097086,174.402103 C326.047035,172.698535 331.343964,172.008125 336.719198,172.471507 L351.396051,173.746685 C372.536901,175.587242 388.16311,194.216972 386.32327,215.349584 L386.263772,215.967669 C385.748972,220.903072 384.304158,225.612992 382.046792,229.895644 L381.823235,230.311557 L381.766021,230.708898 C379.112003,248.294659 369.579337,268.412296 357.651836,283.22779 L357.131754,283.868577 C356.092944,285.136957 355.062376,286.903822 353.22195,290.629444 L350.831814,295.500666 C350.541203,296.082308 350.263957,296.629416 349.984669,297.171525 L349.701545,297.71716 C340.895945,314.565696 329.394087,325.267608 308.908262,331.17436 L308.226765,331.367855 C291.081315,336.160965 268.302033,336.918521 237.891092,333.42437 L236.418235,333.251557 L236.622315,334.233247 L237.142734,336.786975 C240.047328,351.234431 242.227673,365.44661 243.401871,378.938493 C244.503132,391.592304 244.682413,403.241499 243.767883,413.741886 L242.177123,432.006557 L0,432.006557 L5.54335986,407.580263 L5.90244594,405.93384 L6.48358659,403.156347 L6.75003645,401.846409 C6.97623107,400.725214 7.21262457,399.530471 7.45783872,398.265186 L7.90238845,395.944179 L8.37614065,393.409423 C9.40160001,387.8526 10.4187963,381.878086 11.3938264,375.560744 L11.8129812,372.806108 C16.0208146,344.752719 18.4240851,316.638086 18.1089836,290.655154 C17.7631065,262.134497 14.1046089,238.241057 6.90066629,220.739964 L6.31408594,219.328212 C-3.46864387,195.399693 -0.435701698,168.655516 12.439698,140.011374 C22.7391672,117.097953 39.0139706,93.4987573 60.330776,68.5117514 L61.0155442,67.7104678 C71.5080035,55.4539217 81.6924667,44.5348276 95.5306504,30.3328457 L104.130833,21.5279275 C105.490344,20.1318912 106.613774,18.9715203 107.595315,17.9482075 L109.16245,16.3035332 L110.397183,14.9866201 C110.966523,14.3734454 111.464613,13.8273573 111.89501,13.3445942 L112.440291,12.7251786 L112.96696,12.1055661 L113.241235,11.7655568 L113.324748,11.6343012 C123.459557,-3.93100426 144.15711,-4.11131424 153.449256,12.5037236 Z M45.999247,412.006557 L45.993048,120.549407 C39.7624761,130.162179 34.2528257,139.996284 29.9701695,149.817624 L29.981438,226.339551 C29.834752,225.834449 29.6857618,225.331413 29.5344423,224.830496 C44.5056047,274.38951 36.6761493,344.689867 30.3860126,383.500862 L29.9784946,385.98517 L29.978247,412.006557 L45.999247,412.006557 Z M70.030247,412.006306 L70.031187,88.0696822 L70.5841708,87.3994403 C64.9048873,94.2700845 59.2968313,101.450007 54.0051691,108.825799 L54.009247,412.006306 L70.030247,412.006306 Z M94.062247,412.006306 L94.0661794,60.7979025 C91.4489238,63.6026702 88.7682367,66.5171099 86.0519991,69.5283245 L86.051247,412.006306 L94.062247,412.006306 Z M102.104247,412.006306 L102.108906,52.2983465 L102.077442,52.3311803 L102.072247,412.006306 L102.104247,412.006306 Z M150.135247,412.006306 L150.135826,97.6076412 L149.332668,97.4073035 C137.613049,94.4299491 130.690962,90.2391092 133.570134,83.072012 L133.669744,82.832004 C144.608908,57.3153717 139.291407,8.96256624 130.257325,22.2854379 L129.796156,22.9951443 C127.46544,26.4665926 119.652465,34.2273636 109.200366,44.9622898 L118.098071,35.852032 L118.093247,412.006306 L150.135247,412.006306 Z M182.177247,412.006306 L182.177107,102.8677 L176.963048,102.168681 C176.302351,102.079276 175.644328,101.989757 174.98934,101.899998 L172.121378,101.502151 L174.167477,101.787011 L174.167477,412.006306 L182.177247,412.006306 Z M198.199247,412.006306 L198.199748,105.08952 L196.596125,104.852596 C194.46499,104.540949 192.32555,104.240403 190.189045,103.946998 L190.188247,412.006306 L198.199247,412.006306 Z M223.843309,412.006557 C227.198756,373.480235 212.994292,319.859086 210.41031,310.519342 L210.012857,309.105055 L212.799854,309.58733 C222.01464,311.160975 230.479657,312.396344 238.262431,313.326841 L238.26137,115.336226 C230.0514,111.185195 218.580848,108.471904 206.21286,106.363837 L206.209247,412.006557 L223.843309,412.006557 Z M246.263994,120.923773 L246.274036,314.201874 C255.229022,315.08269 263.195553,315.523513 270.297861,315.585798 L270.293929,185.806867 L270.465354,185.858044 C267.413379,184.950544 264.726901,183.958482 262.517123,182.854713 C244.105105,173.654829 262.517123,155.24281 249.629935,125.793381 C248.915867,124.161612 247.891026,122.657907 246.593921,121.268698 L246.263994,120.923773 Z M279.339708,188.085349 L278.304284,187.858605 L278.319615,315.486126 C284.011203,315.285238 289.065858,314.807542 293.569387,314.095482 L294.325959,313.972803 L294.325526,190.842988 C289.046973,189.985252 283.973396,189.085154 279.339708,188.085349 L279.339708,188.085349 Z M302.335247,192.098306 L302.345283,312.24333 C322.390021,306.797715 328.540059,295.563133 333.740249,284.943067 L334.377395,283.637384 L334.376976,192.354654 C330.346496,192.147682 326.557144,193.312892 323.388262,195.386646 C320.76865,194.942887 318.095177,194.514182 315.396907,194.093437 L311.804472,193.539198 L303.96685,192.348879 L302.335247,192.098306 Z M342.388282,193.039306 L342.388282,270.290979 C348.494252,262.602612 354.273729,252.493265 358.058613,242.374036 L358.410329,241.417644 L358.410329,196.780087 L358.659873,196.953064 C356.091334,195.141015 353.023524,193.964029 349.664895,193.671621 L342.388282,193.039306 Z M21.9414339,175.10755 L21.9361147,202.403214 L21.9469438,202.453261 L21.9525737,175.047538 L21.9414339,175.10755 Z" id="Shape"></path>
        </g>
    </g>
</svg>